<?xml version="1.0" encoding="UTF-8"?><svg id="Layer_1" xmlns="http://www.w3.org/2000/svg" viewBox="0 0 114.13 120.03"><defs><style>.cls-1{fill:#eccfd6;}</style></defs><path class="cls-1" d="M101.05,76.37c.25,10.44-4.08,21.11-12.14,27.16-8.59,6.46-21.29,6.73-29.46-.33-3.56-3.08-6.38-7.44-10.76-8.91-6.2-2.08-12.48,2.45-17.62,6.66-5.14,4.2-11.6,8.57-17.7,6.17-4.45-1.75-7.14-6.87-7.37-11.88-.23-5,1.58-9.88,3.9-14.25,7.03-13.28,18.7-23.27,31.32-30.64,8.76-5.12,18.27-9.26,25.49-16.57,1.08-1.09,2.16-2.37,2.3-3.94.31-3.33-3.48-5.3-6.62-5.82-5.25-.88-10.67-.55-15.79.94-3.46,1.01-6.97,2.72-8.9,5.91-2,3.31-1.97,7.67-4.05,10.92-2.63,4.11-8.38,5.3-12.6,3.11-4.22-2.19-6.78-7.19-6.89-12.15-.31-14.21,16.41-27.22,29.09-25.99,7.99.77,14.82,6.46,22.65,8.33,6.87,1.64,14.36.12,20.17-4.09,1.96-1.42,3.75-3.14,5.87-4.27,2.12-1.13,4.76-1.61,6.86-.43,2.2,1.24,3.27,3.96,3.66,6.56,1.31,8.76-3.19,17.39-8.76,24.03-9.72,11.58-22.8,19.3-35.36,27.29-2.6,1.66-5.25,3.39-7.12,5.93s-2.8,6.08-1.57,9.01c.92,2.19,2.86,3.7,4.8,4.94,4.86,3.11,10.27,5.26,15.87,6.29,2.6.48,5.33.71,7.84-.16,7.47-2.61,9.19-12.95,14.79-18.78,1.64-1.7,4.26-3.03,6.15-1.66,1.32.96,1.68,2.83,1.82,4.51.06.7.1,1.4.11,2.1Z"/></svg>