<?xml version="1.0" encoding="UTF-8"?><svg id="Layer_1" xmlns="http://www.w3.org/2000/svg" viewBox="0 0 252.84 120.03"><defs><style>.cls-1{fill:#b7a235;}</style></defs><path class="cls-1" d="M230.81,71.68c4.18-2.89,8.81-5.07,13.65-6.42,1.05-.29,2.66-.12,2.62,1.03-.01.36-.22.68-.42.97-6.6,9.6-15.41,17.5-25.46,22.81-2.55,1.35-5.65,2.52-8.13,1.04-2.49-1.48-3.15-4.97-2.94-7.98.97-13.64,16.73-28.65,14.5-37.62-.92-3.68-6.38,3.51-8.86,6.28-8.41,9.4-14.54,20.84-22.8,30.39-2.39,2.76-5.02,5.41-8.29,6.86-2.32,1.03-5.67.99-6.62-1.46-.46-1.17-.17-2.5.14-3.72,3.53-13.72,23.73-44.04,10.56-40.98-2.83.66-18.32,17.3-24.8,28.25-2.59,4.37-5.05,9.16-9.27,11.76-3.58,2.2-8.01,2.56-12.07,3.57-2.74.68-6.84,4.59-7.33,3.69-.94-1.72,2.63-8.08,4.23-11.99,5.64-13.78,13.38-26.38,20.95-39.04-4.32.5-7.53,5.02-11.32,6.86-2.03.99-4.68.46-5.2-2.16-.67-3.33,2.41-6.96,4.35-9.21,1.66-1.93,3.5-3.87,5.55-5.33,6.08-4.32,12.77-7.67,19.8-9.87,1.62-.51,3.54-.9,4.87.21,1.04.87,1.34,2.39,1.46,3.79.35,4.25-.36,8.59-2.04,12.47,8.35-5.31,16.97-10.72,26.59-12.42,2.69-.48,6.04-.33,7.37,2.17,1.77,3.32-1.64,7.2-1.52,11.01,8.07-5.84,16.51-11.83,26.2-13.34,4.6-.71,10.22.21,12.27,4.61,1.2,2.56.82,5.62.11,8.38-3.32,13.02-12.85,23.21-18.23,35.45.03-.02.06-.04.09-.06Z"/><path class="cls-1" d="M133.49,63.68c.85-.53,1.71-1.03,2.59-1.5.65-.35,1.38-.7,2.09-.54,1.84.39,1.78,3.19,1.18,5.06-2.61,8.04-6.86,15.48-12.36,21.69-2.09,2.36-4.45,4.6-7.33,5.71-2.88,1.11-6.39.87-8.66-1.3-1.32-1.27-2.1-3.06-2.51-4.89-1.9-8.66,4-17.12,4.32-26.01.02-.45,0-.95-.28-1.29-.5-.61-1.45-.32-2.13.04-7.65,4.09-12.86,11.81-19.28,17.81-2.88,2.69-6.67,5.19-10.36,4-4.27-1.38-5.88-6.86-6.11-11.56-1.22-25.06,18.32-43.53,38.97-51.8,1.25-.5,2.55-.97,3.88-.9,1.33.07,2.72.79,3.23,2.09.64,1.61.04,4.01,1.54,4.75,4.65-7.28,14.01-10.79,21.98-8.22.72.23,1.51.59,1.79,1.33.2.55.06,1.17-.08,1.73-4.56,17.45-16.44,32.14-20.22,49.8,2.39-2.26,5-4.27,7.76-5.99ZM87.96,65.55c-.03.3.06.73.2,1.13.15.43.43.58.85.45.47-.14.92-.32,1.31-.65.56-.47,1.13-.93,1.7-1.38.78-.62,1.58-1.18,2.28-1.91.8-.83,1.64-1.62,2.46-2.44,1.37-1.35,2.7-2.72,4.01-4.13.86-.93,1.68-1.88,2.6-2.75,2.1-1.99,3.89-4.28,5.65-6.6,1.47-1.94,2.82-3.97,4.1-6.06.36-.59.73-1.17,1.07-1.77.63-1.11,1.25-2.23,1.86-3.36.56-1.03,1.01-2.12,1.38-3.24.16-.49.08-.67-.34-.93-.18-.11-.36-.19-.58-.2-1.01-.04-1.99.04-2.94.44-1.39.59-2.66,1.4-3.83,2.36-1.62,1.32-3.24,2.64-4.96,3.81-1.4.96-2.7,2.05-3.96,3.19-.95.86-1.89,1.75-2.78,2.68-.93.97-1.93,1.86-2.68,3.01-.65,1-1.28,2.02-1.92,3.03-.44.7-.87,1.39-1.25,2.13-.54,1.05-.94,2.16-1.39,3.24-1.21,2.87-2.08,5.86-2.74,8.91-.06.29-.09.59-.1,1.02Z"/><path class="cls-1" d="M72.4,69.56c.19,7.66-3,15.49-8.91,19.94-6.31,4.74-15.63,4.94-21.62-.24-2.61-2.26-4.68-5.46-7.9-6.54-4.55-1.52-9.16,1.8-12.93,4.89-3.77,3.09-8.51,6.29-12.99,4.53-3.27-1.29-5.24-5.04-5.41-8.72-.17-3.67,1.16-7.25,2.86-10.46,5.16-9.75,13.72-17.08,22.99-22.49,6.43-3.76,13.41-6.8,18.71-12.17.79-.8,1.58-1.74,1.69-2.89.23-2.45-2.55-3.89-4.86-4.27-3.85-.64-7.83-.41-11.59.69-2.54.74-5.12,2-6.54,4.34-1.47,2.43-1.44,5.63-2.97,8.02-1.93,3.02-6.15,3.89-9.25,2.28s-4.98-5.28-5.06-8.92c-.22-10.43,12.05-19.98,21.35-19.08,5.87.57,10.88,4.74,16.62,6.11,5.04,1.2,10.54.09,14.8-3,1.44-1.04,2.75-2.31,4.31-3.14,1.56-.83,3.49-1.18,5.03-.31,1.62.91,2.4,2.91,2.69,4.82.96,6.43-2.34,12.76-6.43,17.64-7.14,8.5-16.74,14.16-25.95,20.03-1.91,1.22-3.86,2.49-5.22,4.35s-2.05,4.46-1.15,6.61c.67,1.61,2.1,2.71,3.53,3.63,3.57,2.28,7.54,3.86,11.65,4.62,1.91.35,3.91.52,5.75-.12,5.48-1.91,6.74-9.5,10.85-13.78,1.2-1.25,3.12-2.23,4.52-1.22.97.7,1.23,2.07,1.34,3.31.04.51.07,1.03.08,1.54Z"/></svg>