<?xml version="1.0" encoding="UTF-8"?>
<svg id="Layer_1" data-name="Layer 1" xmlns="http://www.w3.org/2000/svg" viewBox="0 0 1920 1080">
  <defs>
    <style>
      .cls-1 {
        fill: #e6e6e6;
        stroke-width: 0px;
      }
    </style>
  </defs>
  <g>
    <path class="cls-1" d="M875.78,346.98h-55.06v-54.73h179.84v54.73h-55.06v159.64h-69.72v-159.64Z"/>
    <path class="cls-1" d="M1019.78,292.25h69.72v214.37h-69.72v-214.37Z"/>
    <path class="cls-1" d="M1116.21,292.25h97.41l60.92,122.5h.65l-1.96-122.5h60.27v214.37h-87.31l-72-144.33h-.33l2.28,144.33h-59.95v-214.37Z"/>
    <path class="cls-1" d="M1432.23,425.5l-81.45-133.25h87.31l38.12,76.23h.65l37.79-76.23h71.67l-82.1,133.25v81.12h-72v-81.12Z"/>
    <path class="cls-1" d="M827.89,554.85h97.41c60.27,0,92.52,25.74,92.52,78.19,0,48.54-25.74,76.23-86.33,76.23h-33.56v59.95h-70.04v-214.37ZM927.58,668.55c17.92,0,28.02-8.8,28.02-29.97,0-19.87-10.75-30.3-30.62-30.3h-27.04v60.27h29.65Z"/>
    <path class="cls-1" d="M1031.19,661.06c0-67.76,46.59-109.47,118.26-109.47s118.26,41.7,118.26,109.47-45.61,111.42-118.26,111.42-118.26-41.05-118.26-111.42ZM1195.06,661.39c0-37.47-19.87-56.36-45.61-56.36s-45.61,18.9-45.61,56.36,19.87,57.67,45.61,57.67,45.61-18.9,45.61-57.67Z"/>
    <path class="cls-1" d="M1287.91,554.85h97.41l60.92,122.5h.65l-1.96-122.5h60.27v214.37h-87.31l-72-144.33h-.33l2.28,144.33h-59.95v-214.37Z"/>
    <path class="cls-1" d="M1530.62,554.85h91.22c75.91,0,115,37.79,115,106.86s-37.47,107.51-108.81,107.51h-97.41v-214.37ZM1627.71,715.79c23.13,0,39.42-15.64,39.42-54.08s-17.27-53.43-41.38-53.43h-25.09v107.51h27.04Z"/>
  </g>
  <path class="cls-1" d="M458.65,517.02c30.13-72.27,34.66-175.54,25.99-249.19-.56-4.78-4.5-8.45-9.31-8.71-7.75-.41-18.23-.97-20.17-.97-170.75,0-304.1,160.17-257.99,338.46,23.65,91.44,95.3,163.09,186.74,186.74,178.29,46.1,338.46-87.24,338.46-257.99,0-63.22-21.96-121.32-58.66-167.08-2.42-3.02-7.42-4.51-11.09-3.27-93.63,31.79-161.81,139.6-193.96,162.01Z"/>
</svg>