<svg id="Layer_1" xmlns="http://www.w3.org/2000/svg" viewBox="0 0 264.28 65.18"><defs><style>.cls-1{stroke:rgba(255,255,255,0);}.cls-1,.cls-2,.cls-3{stroke-miterlimit:10;}.cls-1,.cls-4{fill:#017b51;}.cls-2,.cls-3{fill:none;stroke:#fff;}.cls-5{fill:#fff;}.cls-6{opacity:0;}.cls-3{stroke-width:2px;}</style></defs><path class="cls-4" d="M116.76,25.02c0,5.36-.27,11.33-.27,13.19,0,2.2.55,3.3,1.92,3.3,1.51,0,1.99-1.17,1.99-2.88,0-1.58-1.03-4.12-1.03-5.49,0-.96.48-1.72,1.51-1.72,1.65,0,1.99,1.3,1.99,6.46,0,10.1-2.13,13.39-9.2,13.39-6.52,0-7.55-3.85-8.1-8.31-.14-.96-.48-1.44-1.1-1.44-.69,0-1.03.48-1.1,1.44-.27,4.19-3.71,8.38-11.68,8.38-7.42,0-10.3-3.91-10.3-9.55,0-7.55,5.84-9.41,12.71-10.23,8.86-1.1,9.96-2.88,9.96-8.86,0-5.22-2.95-6.94-8.24-6.94-2.2,0-2.61.76-2.61,1.44,0,.62.41,1.1,1.51,1.31,2.61.48,4.05,2.13,4.05,4.94,0,4.19-3.37,6.11-8.17,6.11s-7.97-1.99-7.97-7.01c0-5.56,5.36-10.1,18.47-10.1s15.66,5.01,15.66,12.57ZM94.5,38.07c0,2.61,1.72,3.3,3.71,3.3,3.37,0,5.98-2.68,5.98-6.59,0-1.51-.34-2.33-1.72-2.33-4.19,0-7.97,2.27-7.97,5.63Z"/><g class="cls-6"><path class="cls-3" d="M116.76,25.02c0,5.36-.27,11.33-.27,13.19,0,2.2.55,3.3,1.92,3.3,1.51,0,1.99-1.17,1.99-2.88,0-1.58-1.03-4.12-1.03-5.49,0-.96.48-1.72,1.51-1.72,1.65,0,1.99,1.3,1.99,6.46,0,10.1-2.13,13.39-9.2,13.39-6.52,0-7.55-3.85-8.1-8.31-.14-.96-.48-1.44-1.1-1.44-.69,0-1.03.48-1.1,1.44-.27,4.19-3.71,8.38-11.68,8.38-7.42,0-10.3-3.91-10.3-9.55,0-7.55,5.84-9.41,12.71-10.23,8.86-1.1,9.96-2.88,9.96-8.86,0-5.22-2.95-6.94-8.24-6.94-2.2,0-2.61.76-2.61,1.44,0,.62.41,1.1,1.51,1.31,2.61.48,4.05,2.13,4.05,4.94,0,4.19-3.37,6.11-8.17,6.11s-7.97-1.99-7.97-7.01c0-5.56,5.36-10.1,18.47-10.1s15.66,5.01,15.66,12.57ZM94.5,38.07c0,2.61,1.72,3.3,3.71,3.3,3.37,0,5.98-2.68,5.98-6.59,0-1.51-.34-2.33-1.72-2.33-4.19,0-7.97,2.27-7.97,5.63Z"/></g><path class="cls-1" d="M158.22,8.38c-2.3-.12-2.72,1.01-3.06,7.34-.81,15.32.44,21.73.04,29.28-.42,9.35-5.13,15.09-15.12,14.56-8.49-.45-11.7-5.09-11.33-12.07.28-5.25,3.33-8.4,8.15-8.15,4.53.24,6.24,3.43,6.03,7.31-.22,4.17-3.32,5.52-5.41,5.41-1.65-.09-1.98.69-2.02,1.34-.05.93.42,1.61,2.29,1.71,3.24.17,7.78-1.17,8.14-8.08.29-5.46-1.55-7.51-4.04-9.52-2.42-1.93-3.27-3.56-3.05-7.8.21-3.96,1.09-15.16,1.23-17.82.16-3.02-.48-4.5-2.21-4.59-.72-.04-1.45.14-1.95.11-1.08-.06-1.47-.87-1.41-1.88.06-1.22.74-1.69,1.6-1.65,3.38.18,6.68.5,10.49.7,4.82.25,9.07.34,13.38.56.86.05,1.48.58,1.42,1.81-.05,1.01-.53,1.78-1.61,1.72-.36-.02-.99-.27-1.57-.3Z"/><path class="cls-4" d="M185.99,25.34c.3,5.2.37,11.02.47,12.82.12,2.13.72,3.17,2.05,3.09,1.47-.08,1.87-1.24,1.77-2.91-.09-1.53-1.23-3.94-1.31-5.28-.05-.93.37-1.69,1.37-1.75,1.6-.09,2.01,1.16,2.29,6.16.57,9.8-1.32,13.12-8.18,13.52-6.33.37-7.55-3.31-8.33-7.61-.19-.93-.55-1.37-1.15-1.34-.67.04-.97.52-.99,1.46-.03,4.08-3.13,8.34-10.87,8.79-7.2.42-10.22-3.22-10.54-8.69-.42-7.33,5.14-9.46,11.76-10.65,8.54-1.56,9.51-3.36,9.17-9.16-.29-5.07-3.26-6.57-8.39-6.27-2.13.12-2.49.88-2.45,1.55.03.6.46,1.04,1.54,1.18,2.56.32,4.05,1.84,4.21,4.57.23,4.07-2.92,6.12-7.59,6.39-4.87.28-7.85-1.49-8.13-6.36-.31-5.4,4.64-10.1,17.37-10.84,12.8-.74,15.48,3.99,15.91,11.33ZM165.12,39.25c.15,2.53,1.85,3.1,3.79,2.99,3.27-.19,5.65-2.93,5.43-6.74-.08-1.47-.46-2.25-1.8-2.17-4.07.23-7.61,2.65-7.42,5.91Z"/><g class="cls-6"><path class="cls-3" d="M185.99,25.34c.3,5.2.37,11.02.47,12.82.12,2.13.72,3.17,2.05,3.09,1.47-.08,1.87-1.24,1.77-2.91-.09-1.53-1.23-3.94-1.31-5.28-.05-.93.37-1.69,1.37-1.75,1.6-.09,2.01,1.16,2.29,6.16.57,9.8-1.32,13.12-8.18,13.52-6.33.37-7.55-3.31-8.33-7.61-.19-.93-.55-1.37-1.15-1.34-.67.04-.97.52-.99,1.46-.03,4.08-3.13,8.34-10.87,8.79-7.2.42-10.22-3.22-10.54-8.69-.42-7.33,5.14-9.46,11.76-10.65,8.54-1.56,9.51-3.36,9.17-9.16-.29-5.07-3.26-6.57-8.39-6.27-2.13.12-2.49.88-2.45,1.55.03.6.46,1.04,1.54,1.18,2.56.32,4.05,1.84,4.21,4.57.23,4.07-2.92,6.12-7.59,6.39-4.87.28-7.85-1.49-8.13-6.36-.31-5.4,4.64-10.1,17.37-10.84,12.8-.74,15.48,3.99,15.91,11.33ZM165.12,39.25c.15,2.53,1.85,3.1,3.79,2.99,3.27-.19,5.65-2.93,5.43-6.74-.08-1.47-.46-2.25-1.8-2.17-4.07.23-7.61,2.65-7.42,5.91Z"/></g><path class="cls-4" d="M220.26,52.55c-1.94,0-3.82.22-5.76.22-2.38,0-2.3-1.51-2.45-10.8,0-.79-.29-1.08-.94-1.08-.43,0-.79.22-.94.86-1.51,7.27-4.54,11.74-11.95,11.74-9.72.07-12.31-7.2-12.31-18.43,0-16.42,7.34-21.75,16.42-21.75,3.74,0,5.04.58,6.41.58,1.08,0,1.22-.5,1.22-1.66,0-3.53-.65-4.32-2.45-4.32-.72,0-1.66.14-2.3.14-1.01,0-1.3-.86-1.3-1.73,0-1.01.58-1.73,1.73-1.73,5.26,0,14.91-1.87,17.14-1.87,1.3,0,1.73.58,1.73,2.16,0,6.05-.07,15.7-.14,23.83,0,6.19,0,12.1.14,16.56.07,3.02,1.15,4.1,2.66,4.1,1.01,0,1.51.86,1.51,1.73s-.5,1.66-1.51,1.66c-1.15,0-4.68-.22-6.91-.22ZM204.42,43.19c4.18,0,5.11-5.33,5.11-11.09v-10.22c0-3.38-1.44-4.9-3.96-4.9-3.6,0-5.11,4.03-5.11,16.27,0,8.35,1.44,9.94,3.96,9.94Z"/><g class="cls-6"><path class="cls-3" d="M220.26,52.55c-1.94,0-3.82.22-5.76.22-2.38,0-2.3-1.51-2.45-10.8,0-.79-.29-1.08-.94-1.08-.43,0-.79.22-.94.86-1.51,7.27-4.54,11.74-11.95,11.74-9.72.07-12.31-7.2-12.31-18.43,0-16.42,7.34-21.75,16.42-21.75,3.74,0,5.04.58,6.41.58,1.08,0,1.22-.5,1.22-1.66,0-3.53-.65-4.32-2.45-4.32-.72,0-1.66.14-2.3.14-1.01,0-1.3-.86-1.3-1.73,0-1.01.58-1.73,1.73-1.73,5.26,0,14.91-1.87,17.14-1.87,1.3,0,1.73.58,1.73,2.16,0,6.05-.07,15.7-.14,23.83,0,6.19,0,12.1.14,16.56.07,3.02,1.15,4.1,2.66,4.1,1.01,0,1.51.86,1.51,1.73s-.5,1.66-1.51,1.66c-1.15,0-4.68-.22-6.91-.22ZM204.42,43.19c4.18,0,5.11-5.33,5.11-11.09v-10.22c0-3.38-1.44-4.9-3.96-4.9-3.6,0-5.11,4.03-5.11,16.27,0,8.35,1.44,9.94,3.96,9.94Z"/></g><path class="cls-4" d="M240.55,54.14c-10.48.85-20.24-2.76-21.49-18.11-1.29-15.86,6.78-22.23,18.55-23.19,12.99-1.06,17.36,4.72,17.94,11.76.46,5.67-1.83,9.47-14.75,10.52-3.88.32-6.12,1.08-5.93,3.52.25,3.01,3.2,4.72,9.23,4.23,5.81-.47,10.49-2.52,10.1-7.25-.08-1,.52-1.56,1.17-1.61.72-.06,1.33.4,1.42,1.4,1.01,12.34-3.25,17.68-16.24,18.74ZM233.37,28.07c.11,1.36.28,2.58.49,3.28.39,1.2,1.35,1.48,2.42,1.39,2.15-.18,6.86-1.86,6.12-10.83-.3-3.73-1.49-5.88-4.51-5.63-4.02.33-5.17,3.89-4.53,11.78Z"/><g class="cls-6"><path class="cls-3" d="M240.55,54.14c-10.48.85-20.24-2.76-21.49-18.11-1.29-15.86,6.78-22.23,18.55-23.19,12.99-1.06,17.36,4.72,17.94,11.76.46,5.67-1.83,9.47-14.75,10.52-3.88.32-6.12,1.08-5.93,3.52.25,3.01,3.2,4.72,9.23,4.23,5.81-.47,10.49-2.52,10.1-7.25-.08-1,.52-1.56,1.17-1.61.72-.06,1.33.4,1.42,1.4,1.01,12.34-3.25,17.68-16.24,18.74ZM233.37,28.07c.11,1.36.28,2.58.49,3.28.39,1.2,1.35,1.48,2.42,1.39,2.15-.18,6.86-1.86,6.12-10.83-.3-3.73-1.49-5.88-4.51-5.63-4.02.33-5.17,3.89-4.53,11.78Z"/></g><path class="cls-4" d="M56.73,5.41c2.23,0,2.52,1.3,2.52,3.1-.14,2.81-.36,5.9-.36,8.93s.72,7.63.72,8.78c0,1.3-.58,2.23-1.73,2.23-5.11,0-6.48-6.77-8.06-13.68-.79-3.96-1.66-5.69-3.38-5.69-1.51,0-2.16,1.08-2.16,2.88,0,34.56.94,35.5,4.61,35.5,1.44,0,2.3-.43,3.31-.43.94,0,1.66.72,1.66,1.87,0,1.01-.36,1.87-1.66,1.87-2.52,0-10.15-.14-15.48-.14s-12.89.14-15.34.14c-1.3,0-1.66-.86-1.66-1.87,0-1.15.72-1.87,1.66-1.87,1.01,0,1.87.43,3.31.43,3.67,0,4.61-.94,4.61-35.5,0-1.8-.65-2.88-2.16-2.88-1.73,0-2.59,1.73-3.46,5.62-1.51,6.98-2.95,13.75-7.99,13.75-1.15,0-1.73-.94-1.73-2.23,0-1.15.72-5.69.72-8.78s-.22-6.12-.36-8.93c0-1.8.22-3.1,2.52-3.1,6.7.14,13.39.58,20.16.58,6.41,0,13.11-.43,19.73-.58Z"/><g class="cls-6"><path class="cls-2" d="M56.73,5.41c2.23,0,2.52,1.3,2.52,3.1-.14,2.81-.36,5.9-.36,8.93s.72,7.63.72,8.78c0,1.3-.58,2.23-1.73,2.23-5.11,0-6.48-6.77-8.06-13.68-.79-3.96-1.66-5.69-3.38-5.69-1.51,0-2.16,1.08-2.16,2.88,0,34.56.94,35.5,4.61,35.5,1.44,0,2.3-.43,3.31-.43.94,0,1.66.72,1.66,1.87,0,1.01-.36,1.87-1.66,1.87-2.52,0-10.15-.14-15.48-.14s-12.89.14-15.34.14c-1.3,0-1.66-.86-1.66-1.87,0-1.15.72-1.87,1.66-1.87,1.01,0,1.87.43,3.31.43,3.67,0,4.61-.94,4.61-35.5,0-1.8-.65-2.88-2.16-2.88-1.73,0-2.59,1.73-3.46,5.62-1.51,6.98-2.95,13.75-7.99,13.75-1.15,0-1.73-.94-1.73-2.23,0-1.15.72-5.69.72-8.78s-.22-6.12-.36-8.93c0-1.8.22-3.1,2.52-3.1,6.7.14,13.39.58,20.16.58,6.41,0,13.11-.43,19.73-.58Z"/></g><path class="cls-4" d="M105.46,26.16l14.13-2.16c3.4-.52,6.22-2.89,7.31-6.15l7.44-22.21c.23-.68,1.25-.49,1.2.23l-1.38,23.38c-.2,3.43,1.53,6.69,4.49,8.43l12.31,7.28c.5.3.35,1.06-.22,1.14l-14.13,2.16c-3.4.52-6.22,2.89-7.31,6.15l-7.44,22.21c-.23.68-1.25.49-1.2-.23l1.38-23.38c.2-3.43-1.53-6.69-4.49-8.43l-12.31-7.28c-.5-.3-.35-1.06.22-1.14Z"/><g class="cls-6"><path class="cls-5" d="M135.29-4.04h0,0M134.38-1.32l-1.21,20.51c-.23,3.82,1.68,7.41,4.98,9.35l11.39,6.73-13.07,2c-3.78.58-6.89,3.19-8.11,6.82l-6.53,19.48,1.21-20.51c.23-3.82-1.68-7.41-4.98-9.35l-11.39-6.73,13.07-2c3.78-.58,6.89-3.19,8.11-6.82l6.53-19.48M134.92-4.78c-.24,0-.48.13-.58.42l-7.44,22.21c-1.09,3.26-3.91,5.63-7.31,6.15l-14.13,2.16c-.57.09-.72.85-.22,1.14l12.31,7.28c2.96,1.75,4.69,5,4.49,8.43l-1.38,23.38c-.02.41.3.66.63.66.24,0,.48-.13.58-.42l7.44-22.21c1.09-3.26,3.91-5.63,7.31-6.15l14.13-2.16c.57-.09.72-.85.22-1.14l-12.31-7.28c-2.96-1.75-4.69-5-4.49-8.43l1.38-23.38c.02-.41-.3-.66-.63-.66h0Z"/></g><path class="cls-4" d="M54.04,31.4c1.58.06,3.09-.1,4.63-.04.73.03.93.36.9,1.04-.03.72-.56,6.06-.68,9.08-.04,1.04-.16,3.77-.19,5.54-.03,1.8.07,2.31.67,2.33.34.01.65-.05.94-.04.69.03.93.47.91.9-.02.47-.29.85-.98.83-1.16-.04-4.49-.31-6.8-.4-1.93-.07-3.6,0-5.36-.06-.56-.02-.89-.29-.86-.9.02-.57.38-.85.94-.83.21,0,.47.09.81.1.47.02.54-.63.62-1.42.24-2.73.5-5.74.62-8.72.06-1.51.09-3.09.06-4.43-.03-1.37-.32-1.67-1.04-1.69-.39-.01-.64.01-.77,0-.6-.02-.75-.5-.73-.93s.21-.82.81-.8c1.76.07,3.42.34,5.51.42ZM60.12,26.53c-.08,2.01-1.49,2.68-5.47,2.56-3.94-.11-5.32-.96-5.23-2.97.09-2.23,2.66-3.03,5.48-2.92,2.87.11,5.32,1.06,5.22,3.33Z"/><g class="cls-6"><path class="cls-5" d="M54.41,23.19c.16,0,.32,0,.49,0,2.87.11,5.32,1.06,5.22,3.33-.08,1.87-1.29,2.58-4.65,2.58-.26,0-.53,0-.82-.01-3.94-.11-5.32-.96-5.23-2.97.09-2.1,2.37-2.93,5-2.93M48.48,30.97s.03,0,.05,0c1.76.07,3.42.34,5.51.42.26,0,.51.01.77.01,1.06,0,2.09-.07,3.13-.07.24,0,.49,0,.73.01.73.03.93.36.9,1.04-.03.72-.56,6.06-.68,9.08-.04,1.04-.16,3.77-.19,5.54-.03,1.8.07,2.31.67,2.33.03,0,.07,0,.1,0,.27,0,.52-.04.77-.04.02,0,.05,0,.07,0,.69.03.93.47.91.9-.02.45-.28.83-.92.83-.02,0-.04,0-.06,0-1.16-.04-4.49-.31-6.8-.4-.72-.03-1.4-.03-2.06-.03-.5,0-.98,0-1.47,0-.61,0-1.22,0-1.83-.03-.56-.02-.89-.29-.86-.9.02-.55.35-.83.88-.83.02,0,.04,0,.06,0,.21,0,.47.09.81.1,0,0,.01,0,.02,0,.45,0,.52-.64.6-1.42.24-2.73.5-5.74.62-8.72.06-1.51.09-3.09.06-4.43-.03-1.37-.32-1.67-1.04-1.7-.09,0-.16,0-.24,0-.23,0-.39.01-.5.01-.01,0-.03,0-.04,0-.6-.02-.75-.5-.73-.93.02-.42.2-.8.76-.8M54.41,22.19h0c-3.65,0-5.89,1.46-5.99,3.89-.04,1.02.23,1.86.82,2.49.92.99,2.53,1.44,5.39,1.52.3,0,.58.01.84.01,2.72,0,5.52-.42,5.65-3.54.04-.97-.28-1.85-.92-2.54-1.29-1.4-3.57-1.76-5.27-1.83-.18,0-.35-.01-.52-.01h0ZM48.48,29.97h0c-1.01,0-1.71.71-1.76,1.76-.02.58.14,1.07.47,1.43.21.23.6.51,1.22.54h.08c.05,0,.12,0,.19,0,.08,0,.18,0,.3,0,.06,0,.13,0,.2,0,0,0,.01,0,.02,0,.02.11.06.33.06.71.03,1.28,0,2.83-.06,4.36-.12,2.97-.39,6.04-.62,8.68-.01.12-.03.29-.05.44-.12-.02-.24-.03-.35-.04h-.1c-1.08,0-1.83.72-1.88,1.79-.03.69.23,1.12.45,1.37.23.25.65.54,1.37.57.68.03,1.33.03,1.87.03h.73s.74,0,.74,0c.58,0,1.27,0,2.02.03,1.34.05,3.06.17,4.44.26,1,.07,1.86.12,2.36.14h.1c1.1,0,1.87-.72,1.91-1.78.02-.51-.15-.99-.47-1.34-.24-.26-.67-.57-1.4-.6h-.11c-.14,0-.29,0-.44.02-.03,0-.05,0-.08,0-.02-.23-.04-.63-.02-1.3.03-1.77.15-4.59.19-5.51.08-2.02.35-5.08.52-7.11.09-1.03.15-1.72.16-1.97.02-.42-.01-1.04-.46-1.52-.33-.36-.79-.54-1.4-.56-.26,0-.51-.01-.77-.01-.53,0-1.05.02-1.58.03-.51.02-1.03.03-1.55.03-.24,0-.49,0-.73-.01-1.07-.04-2.02-.13-2.94-.22-.87-.09-1.7-.17-2.57-.2h-.09Z"/></g><path class="cls-4" d="M60.98,24.1c0-.82.57-1.57,1.57-1.57,1.2,0,2.58.25,3.72.25.82,0,1.26-.38,1.26-1.01,0-.5-.32-.82-1.2-1.2-3.4-1.45-5.1-3.21-5.1-6.99,0-5.35,4.72-9.32,11.84-9.32,8.25,0,11.15,3.84,11.15,8.69,0,4.47-2.52,5.98-5.29,5.98-3.65,0-5.48-2.14-5.48-4.98,0-2.39.95-3.53,1.89-4.47.5-.57.82-.94.82-1.32,0-.63-.5-1.01-1.57-1.01-3.59,0-4.85,2.77-4.85,6.17,0,6.55,4.22,9.45,9.07,9.45,1.32.06,3.02-.31,3.78-.31,1.32,0,1.7.76,1.7,1.64,0,1.2-.63,1.64-1.7,1.64-.5,0-1.58-.19-2.27-.19-1.26,0-1.7.63-1.89,4.66-.13,2.2-.13,5.23-.13,8.06,0,2.46.06,4.72.19,6.3.13,2.27.69,3.46,2.02,3.46.25,0,.76-.13,1.2-.13.82,0,1.32.76,1.32,1.51,0,.82-.25,1.51-1.51,1.51-3.02-.06-6.11-.13-9.2-.13-3.34,0-6.61.06-9.95.13-.88,0-1.32-.5-1.32-1.45,0-.76.44-1.51,1.2-1.51.44,0,.88.13,1.38.13.88,0,1.32-.57,1.58-3.72.13-2.02.19-4.66.19-7.62,0-3.59-.06-7.31-.19-9.76-.06-.82-.38-1.51-1.32-1.51-.57,0-.88.13-1.51.13-.82,0-1.38-.5-1.38-1.51Z"/><g class="cls-6"><path class="cls-3" d="M60.98,24.1c0-.82.57-1.57,1.57-1.57,1.2,0,2.58.25,3.72.25.82,0,1.26-.38,1.26-1.01,0-.5-.32-.82-1.2-1.2-3.4-1.45-5.1-3.21-5.1-6.99,0-5.35,4.72-9.32,11.84-9.32,8.25,0,11.15,3.84,11.15,8.69,0,4.47-2.52,5.98-5.29,5.98-3.65,0-5.48-2.14-5.48-4.98,0-2.39.95-3.53,1.89-4.47.5-.57.82-.94.82-1.32,0-.63-.5-1.01-1.57-1.01-3.59,0-4.85,2.77-4.85,6.17,0,6.55,4.22,9.45,9.07,9.45,1.32.06,3.02-.31,3.78-.31,1.32,0,1.7.76,1.7,1.64,0,1.2-.63,1.64-1.7,1.64-.5,0-1.58-.19-2.27-.19-1.26,0-1.7.63-1.89,4.66-.13,2.2-.13,5.23-.13,8.06,0,2.46.06,4.72.19,6.3.13,2.27.69,3.46,2.02,3.46.25,0,.76-.13,1.2-.13.82,0,1.32.76,1.32,1.51,0,.82-.25,1.51-1.51,1.51-3.02-.06-6.11-.13-9.2-.13-3.34,0-6.61.06-9.95.13-.88,0-1.32-.5-1.32-1.45,0-.76.44-1.51,1.2-1.51.44,0,.88.13,1.38.13.88,0,1.32-.57,1.58-3.72.13-2.02.19-4.66.19-7.62,0-3.59-.06-7.31-.19-9.76-.06-.82-.38-1.51-1.32-1.51-.57,0-.88.13-1.51.13-.82,0-1.38-.5-1.38-1.51Z"/></g></svg>