<svg id="Layer_1" class="sidebar__homelink-alt-svg" xmlns="http://www.w3.org/2000/svg" viewBox="0 0 87.5 88.39"><defs><style>.cls-1{stroke:rgba(255,255,255,0);}.cls-1,.cls-2{stroke-miterlimit:10;}.cls-1,.cls-3{fill:#017b51;}.cls-2{fill:none;stroke:#fff;}.cls-4{fill:#fff;}.cls-5{opacity:0;}</style></defs><path class="cls-3" d="M49.05,17.06c2.23,0,2.52,1.3,2.52,3.1-.14,2.81-.36,5.9-.36,8.93s.72,7.63.72,8.78c0,1.3-.58,2.23-1.73,2.23-5.11,0-6.48-6.77-8.06-13.68-.79-3.96-1.66-5.69-3.38-5.69-1.51,0-2.16,1.08-2.16,2.88,0,34.56.94,35.5,4.61,35.5,1.44,0,2.3-.43,3.31-.43.94,0,1.66.72,1.66,1.87,0,1.01-.36,1.87-1.66,1.87-2.52,0-10.15-.14-15.48-.14s-12.89.14-15.34.14c-1.3,0-1.66-.86-1.66-1.87,0-1.15.72-1.87,1.66-1.87,1.01,0,1.87.43,3.31.43,3.67,0,4.61-.94,4.61-35.5,0-1.8-.65-2.88-2.16-2.88-1.73,0-2.59,1.73-3.46,5.62-1.51,6.98-2.95,13.75-7.99,13.75-1.15,0-1.73-.94-1.73-2.23,0-1.15.72-5.69.72-8.78s-.22-6.12-.36-8.93c0-1.8.22-3.1,2.52-3.1,6.7.14,13.39.58,20.16.58,6.41,0,13.11-.43,19.73-.58Z"/><g class="cls-5"><path class="cls-2" d="M49.05,17.06c2.23,0,2.52,1.3,2.52,3.1-.14,2.81-.36,5.9-.36,8.93s.72,7.63.72,8.78c0,1.3-.58,2.23-1.73,2.23-5.11,0-6.48-6.77-8.06-13.68-.79-3.96-1.66-5.69-3.38-5.69-1.51,0-2.16,1.08-2.16,2.88,0,34.56.94,35.5,4.61,35.5,1.44,0,2.3-.43,3.31-.43.94,0,1.66.72,1.66,1.87,0,1.01-.36,1.87-1.66,1.87-2.52,0-10.15-.14-15.48-.14s-12.89.14-15.34.14c-1.3,0-1.66-.86-1.66-1.87,0-1.15.72-1.87,1.66-1.87,1.01,0,1.87.43,3.31.43,3.67,0,4.61-.94,4.61-35.5,0-1.8-.65-2.88-2.16-2.88-1.73,0-2.59,1.73-3.46,5.62-1.51,6.98-2.95,13.75-7.99,13.75-1.15,0-1.73-.94-1.73-2.23,0-1.15.72-5.69.72-8.78s-.22-6.12-.36-8.93c0-1.8.22-3.1,2.52-3.1,6.7.14,13.39.58,20.16.58,6.41,0,13.11-.43,19.73-.58Z"/></g><path class="cls-1" d="M75.75,21.23c-2.3-.12-2.72,1.01-3.06,7.34-.81,15.32.44,21.73.04,29.28-.42,9.35-5.13,15.09-15.12,14.56-8.49-.45-11.7-5.09-11.33-12.07.28-5.25,3.33-8.4,8.15-8.15,4.53.24,6.24,3.43,6.03,7.31-.22,4.17-3.32,5.52-5.41,5.41-1.65-.09-1.98.69-2.02,1.34-.05.93.42,1.61,2.29,1.71,3.24.17,7.78-1.17,8.14-8.08.29-5.46-1.55-7.51-4.04-9.52-2.42-1.93-3.27-3.56-3.05-7.8.21-3.96,1.09-15.16,1.23-17.82.16-3.02-.48-4.5-2.21-4.59-.72-.04-1.45.14-1.95.11-1.08-.06-1.47-.87-1.41-1.88.06-1.22.74-1.69,1.6-1.65,3.38.18,6.68.5,10.49.7,4.82.25,9.07.34,13.38.56.86.05,1.48.58,1.42,1.81-.05,1.01-.53,1.78-1.61,1.72-.36-.02-.99-.27-1.57-.3Z"/><path class="cls-3" d="M34.42,40.09l7.16-1.2c3.39-.57,6.18-2.99,7.23-6.26l3.76-11.8c.22-.69,1.24-.51,1.21.21l-.52,12.37c-.14,3.44,1.65,6.67,4.64,8.36l6.32,3.58c.51.29.37,1.05-.2,1.15l-7.16,1.2c-3.39.57-6.18,2.99-7.23,6.26l-3.76,11.8c-.22.69-1.24.51-1.21-.21l.52-12.37c.14-3.44-1.65-6.67-4.64-8.36l-6.32-3.58c-.51-.29-.37-1.05.2-1.15Z"/><g class="cls-5"><path class="cls-4" d="M53.52,21.13h0,0M52.65,23.85l-.4,9.52c-.16,3.83,1.81,7.38,5.15,9.28l5.38,3.05-6.1,1.02c-3.78.63-6.85,3.29-8.02,6.95l-2.89,9.08.4-9.52c.16-3.83-1.81-7.38-5.15-9.28l-5.38-3.05,6.1-1.02c3.78-.63,6.85-3.29,8.02-6.95l2.89-9.08M53.15,20.39c-.24,0-.49.14-.58.43l-3.76,11.8c-1.04,3.28-3.83,5.7-7.23,6.26l-7.16,1.2c-.57.1-.71.86-.2,1.15l6.32,3.58c2.99,1.7,4.79,4.93,4.64,8.36l-.52,12.37c-.02.41.3.64.63.64.24,0,.49-.14.58-.43l3.76-11.8c1.04-3.28,3.83-5.7,7.23-6.26l7.16-1.2c.57-.1.71-.86.2-1.15l-6.32-3.58c-2.99-1.7-4.79-4.93-4.64-8.36l.52-12.37c.02-.41-.3-.64-.63-.64h0Z"/></g></svg>